<svg id="Layer_1" data-name="Layer 1" xmlns="http://www.w3.org/2000/svg" viewBox="0 0 1000 1000"><defs><style>.cls-1{fill:#fff;}.cls-2{fill:#991b1e;}</style></defs><path class="cls-1" d="M690.87,320.47c-106.47-65-274.36-61.34-381.74,0V491c-.9,92.08,57.8,177.75,138.05,216.56,18.08,9,34.28,14.47,53.27,18.92,18.92-4.53,35.19-10.86,53.28-18.92C634,667.85,692.68,582.17,691.77,491Z"/><path class="cls-2" d="M629.53,649.84,549.21,274.43c-3.62,0-7.24-.91-10-.91L606,672.37C614.16,665.21,622.3,658,629.53,649.84Zm61.34-145.28-93-222A45,45,0,0,0,587,280.76l98.34,261.7C689.06,529.8,690,517.22,690.87,504.56Zm-138,203.91c6.33-2.72,11.76-6.33,18.09-10l-46.12-425.9H513.94L541.9,713A54.73,54.73,0,0,0,552.82,708.47ZM671,585.79,572.64,278.05c-3.62-.91-7.23-.91-9.95-1.81l93,338.41A283.71,283.71,0,0,0,671,585.79Zm20.79-266.22c-23.43-14.47-50.56-25.25-78.51-33.39l78.51,164.28Zm-383.54,0V490.09c-.91,93,57.79,178.66,138,218.38,18.09,9,34.29,14.46,53.28,18.91V272.62C431,272.62,362.4,288.9,308.23,319.57Zm118.22,157,10.86,32.48-28-20.72-28,20.72,10.85-32.48-28-19.82H398.5l10.85-32.47,10.85,32.47h34.29Z"/></svg>